G75*
%MOIN*%
%OFA0B0*%
%FSLAX25Y25*%
%IPPOS*%
%LPD*%
%AMOC8*
5,1,8,0,0,1.08239X$1,22.5*
%
%ADD10C,0.08674*%
%ADD11OC8,0.05600*%
%ADD12C,0.05600*%
%ADD13R,0.06646X0.06646*%
%ADD14R,0.07887X0.07887*%
%ADD15OC8,0.04934*%
%ADD16OC8,0.06800*%
%ADD17C,0.04343*%
%ADD18R,0.04343X0.04343*%
D10*
X0095703Y0009674D03*
X0095703Y0157706D03*
D11*
X0138420Y0119713D03*
X0138420Y0079713D03*
D12*
X0136768Y0042902D02*
X0141568Y0042902D01*
X0141568Y0032902D02*
X0136768Y0032902D01*
X0136768Y0022902D02*
X0141568Y0022902D01*
D13*
X0141215Y0136209D03*
X0141215Y0153926D03*
X0115625Y0153926D03*
X0115625Y0136209D03*
D14*
X0098066Y0114014D03*
X0098066Y0033314D03*
D15*
X0065448Y0148906D03*
X0065448Y0153906D03*
X0060448Y0153906D03*
X0060448Y0148906D03*
X0055448Y0148906D03*
X0055448Y0153906D03*
X0050448Y0153906D03*
X0050448Y0148906D03*
X0045448Y0148906D03*
X0045448Y0153906D03*
X0040448Y0153906D03*
X0040448Y0148906D03*
X0035448Y0148906D03*
X0035448Y0153906D03*
X0030448Y0153906D03*
X0030448Y0148906D03*
X0025448Y0148906D03*
X0020448Y0148906D03*
X0020448Y0153906D03*
X0025448Y0153906D03*
D16*
X0044759Y0022548D03*
X0054759Y0022548D03*
X0064759Y0022548D03*
X0064759Y0012548D03*
X0054759Y0012548D03*
X0044759Y0012548D03*
D17*
X0015388Y0009674D03*
X0031136Y0009674D03*
X0015388Y0033296D03*
X0015388Y0049044D03*
X0032318Y0076997D03*
X0052003Y0076997D03*
X0052003Y0096682D03*
X0032318Y0096682D03*
X0011451Y0118335D03*
X0012633Y0143926D03*
X0012633Y0155737D03*
X0040192Y0128178D03*
X0070507Y0119910D03*
X0079562Y0124241D03*
X0095310Y0139989D03*
X0079562Y0155737D03*
X0114995Y0116367D03*
X0114995Y0096682D03*
X0083499Y0088808D03*
X0083499Y0065186D03*
X0103184Y0049438D03*
X0114995Y0065186D03*
X0146491Y0069123D03*
X0146491Y0092745D03*
X0146491Y0116367D03*
X0146491Y0143926D03*
X0059877Y0049438D03*
X0079562Y0033690D03*
X0098066Y0021485D03*
X0117751Y0009674D03*
X0141373Y0009674D03*
X0149247Y0017548D03*
X0150428Y0037627D03*
X0074444Y0009674D03*
D18*
X0035073Y0119910D03*
X0054759Y0139595D03*
M02*
