%
M48
M72
T01C0.02362
T02C0.02756
T03C0.03200
T04C0.03898
T05C0.04000
T06C0.04724
T07C0.07874
%
T01
X15388Y9674
X31136Y9674
X15388Y33296
X15388Y49044
X32318Y76997
X52003Y76997
X52003Y96682
X32318Y96682
X35073Y119910
X40192Y128178
X54759Y139595
X70507Y119910
X79562Y124241
X95310Y139989
X79562Y155737
X114995Y116367
X114995Y96682
X83499Y88808
X83499Y65186
X103184Y49438
X114995Y65186
X146491Y69123
X146491Y92745
X146491Y116367
X146491Y143926
X59877Y49438
X79562Y33690
X98066Y21485
X117751Y9674
X141373Y9674
X149247Y17548
X150428Y37627
X74444Y9674
X11451Y118335
X12633Y143926
X12633Y155737
T02
X20448Y153906
X25448Y153906
X30448Y153906
X35448Y153906
X40448Y153906
X45448Y153906
X50448Y153906
X55448Y153906
X60448Y153906
X65448Y153906
X65448Y148906
X60448Y148906
X55448Y148906
X50448Y148906
X45448Y148906
X40448Y148906
X35448Y148906
X30448Y148906
X25448Y148906
X20448Y148906
T03
X138420Y119713
X138420Y79713
X139168Y42902
X139168Y32902
X139168Y22902
T04
X141215Y136209
X141215Y153926
X115625Y153926
X115625Y136209
T05
X64759Y22548
X64759Y12548
X54759Y12548
X54759Y22548
X44759Y22548
X44759Y12548
T06
X98066Y33314
X98066Y114014
T07
X95703Y157706
X95703Y9674
M30
