G75*
%MOIN*%
%OFA0B0*%
%FSLAX25Y25*%
%IPPOS*%
%LPD*%
%AMOC8*
5,1,8,0,0,1.08239X$1,22.5*
%
%ADD10OC8,0.04800*%
%ADD11C,0.04800*%
%ADD12R,0.05846X0.05846*%
%ADD13R,0.07087X0.07087*%
%ADD14C,0.03150*%
%ADD15OC8,0.04134*%
%ADD16OC8,0.06000*%
%ADD17C,0.01600*%
%ADD18C,0.03543*%
%ADD19R,0.03543X0.03543*%
D10*
X0138420Y0079713D03*
X0138420Y0119713D03*
D11*
X0136768Y0042902D02*
X0141568Y0042902D01*
X0141568Y0032902D02*
X0136768Y0032902D01*
X0136768Y0022902D02*
X0141568Y0022902D01*
D12*
X0141215Y0136209D03*
X0141215Y0153926D03*
X0115625Y0153926D03*
X0115625Y0136209D03*
D13*
X0098066Y0114014D03*
X0098066Y0033314D03*
D14*
X0063617Y0059871D02*
X0063617Y0066169D01*
X0061058Y0071091D02*
X0067356Y0071091D01*
X0067356Y0075816D02*
X0061058Y0075816D01*
X0061058Y0080540D02*
X0067356Y0080540D01*
X0067356Y0085265D02*
X0061058Y0085265D01*
X0061058Y0089989D02*
X0067356Y0089989D01*
X0067356Y0094713D02*
X0061058Y0094713D01*
X0061058Y0099438D02*
X0067356Y0099438D01*
X0063617Y0104360D02*
X0063617Y0110658D01*
X0058892Y0110658D02*
X0058892Y0104360D01*
X0054168Y0104360D02*
X0054168Y0110658D01*
X0049444Y0110658D02*
X0049444Y0104360D01*
X0044719Y0104360D02*
X0044719Y0110658D01*
X0039995Y0110658D02*
X0039995Y0104360D01*
X0035270Y0104360D02*
X0035270Y0110658D01*
X0030546Y0110658D02*
X0030546Y0104360D01*
X0025822Y0104360D02*
X0025822Y0110658D01*
X0021097Y0110658D02*
X0021097Y0104360D01*
X0016373Y0104360D02*
X0016373Y0110658D01*
X0011648Y0110658D02*
X0011648Y0104360D01*
X0011648Y0066169D02*
X0011648Y0059871D01*
X0016373Y0059871D02*
X0016373Y0066169D01*
X0021097Y0066169D02*
X0021097Y0059871D01*
X0025822Y0059871D02*
X0025822Y0066169D01*
X0030546Y0066169D02*
X0030546Y0059871D01*
X0035270Y0059871D02*
X0035270Y0066169D01*
X0039995Y0066169D02*
X0039995Y0059871D01*
X0044719Y0059871D02*
X0044719Y0066169D01*
X0049444Y0066169D02*
X0049444Y0059871D01*
X0054168Y0059871D02*
X0054168Y0066169D01*
X0058892Y0066169D02*
X0058892Y0059871D01*
D15*
X0060448Y0148906D03*
X0065448Y0148906D03*
X0065448Y0153906D03*
X0060448Y0153906D03*
X0055448Y0153906D03*
X0055448Y0148906D03*
X0050448Y0148906D03*
X0050448Y0153906D03*
X0045448Y0153906D03*
X0045448Y0148906D03*
X0040448Y0148906D03*
X0040448Y0153906D03*
X0035448Y0153906D03*
X0035448Y0148906D03*
X0030448Y0148906D03*
X0030448Y0153906D03*
X0025448Y0153906D03*
X0020448Y0153906D03*
X0020448Y0148906D03*
X0025448Y0148906D03*
D16*
X0044759Y0022548D03*
X0054759Y0022548D03*
X0064759Y0022548D03*
X0064759Y0012548D03*
X0054759Y0012548D03*
X0044759Y0012548D03*
D17*
X0008377Y0006600D02*
X0008377Y0059016D01*
X0008403Y0058886D01*
X0008658Y0058272D01*
X0009027Y0057720D01*
X0009497Y0057249D01*
X0010050Y0056880D01*
X0010664Y0056626D01*
X0011316Y0056496D01*
X0011648Y0056496D01*
X0011648Y0063020D01*
X0011648Y0063020D01*
X0011648Y0056496D01*
X0011981Y0056496D01*
X0012633Y0056626D01*
X0013247Y0056880D01*
X0013800Y0057249D01*
X0014152Y0057602D01*
X0014574Y0057179D01*
X0015741Y0056696D01*
X0017004Y0056696D01*
X0018171Y0057179D01*
X0018735Y0057743D01*
X0019299Y0057179D01*
X0020466Y0056696D01*
X0021729Y0056696D01*
X0022895Y0057179D01*
X0023459Y0057743D01*
X0024023Y0057179D01*
X0025190Y0056696D01*
X0026453Y0056696D01*
X0027620Y0057179D01*
X0028146Y0057705D01*
X0028146Y0026283D01*
X0028511Y0025401D01*
X0029186Y0024726D01*
X0040159Y0013754D01*
X0040159Y0010643D01*
X0042853Y0007948D01*
X0046664Y0007948D01*
X0049359Y0010643D01*
X0049359Y0014453D01*
X0046664Y0017148D01*
X0043553Y0017148D01*
X0032946Y0027755D01*
X0032946Y0031376D01*
X0033236Y0030677D01*
X0033911Y0030002D01*
X0040159Y0023754D01*
X0040159Y0020643D01*
X0042853Y0017948D01*
X0046664Y0017948D01*
X0049359Y0020643D01*
X0049359Y0024453D01*
X0046664Y0027148D01*
X0043553Y0027148D01*
X0037670Y0033030D01*
X0037670Y0036652D01*
X0037960Y0035952D01*
X0038635Y0035277D01*
X0050159Y0023754D01*
X0050159Y0020643D01*
X0052853Y0017948D01*
X0056664Y0017948D01*
X0059359Y0020643D01*
X0059359Y0024453D01*
X0056664Y0027148D01*
X0053553Y0027148D01*
X0042395Y0038306D01*
X0042395Y0041928D01*
X0042685Y0041228D01*
X0043360Y0040553D01*
X0060159Y0023754D01*
X0060159Y0020643D01*
X0062853Y0017948D01*
X0066664Y0017948D01*
X0069359Y0020643D01*
X0069359Y0024453D01*
X0066664Y0027148D01*
X0063553Y0027148D01*
X0047119Y0043582D01*
X0047119Y0057705D01*
X0047645Y0057179D01*
X0048812Y0056696D01*
X0050075Y0056696D01*
X0051242Y0057179D01*
X0051806Y0057743D01*
X0052370Y0057179D01*
X0053536Y0056696D01*
X0054799Y0056696D01*
X0055966Y0057179D01*
X0056530Y0057743D01*
X0057094Y0057179D01*
X0058261Y0056696D01*
X0059524Y0056696D01*
X0060691Y0057179D01*
X0061113Y0057602D01*
X0061465Y0057249D01*
X0062018Y0056880D01*
X0062632Y0056626D01*
X0063284Y0056496D01*
X0063617Y0056496D01*
X0063949Y0056496D01*
X0064601Y0056626D01*
X0065215Y0056880D01*
X0065768Y0057249D01*
X0066238Y0057720D01*
X0066607Y0058272D01*
X0066862Y0058886D01*
X0066992Y0059538D01*
X0066992Y0063020D01*
X0063617Y0063020D01*
X0063617Y0056496D01*
X0063617Y0063020D01*
X0063617Y0063020D01*
X0063617Y0063021D01*
X0066992Y0063021D01*
X0066992Y0066502D01*
X0066862Y0067154D01*
X0066607Y0067769D01*
X0066509Y0067917D01*
X0067988Y0067917D01*
X0069155Y0068400D01*
X0070048Y0069293D01*
X0070532Y0070460D01*
X0070532Y0071723D01*
X0070048Y0072890D01*
X0069485Y0073454D01*
X0070048Y0074017D01*
X0070532Y0075184D01*
X0070532Y0076447D01*
X0070048Y0077614D01*
X0069485Y0078178D01*
X0070048Y0078742D01*
X0070532Y0079909D01*
X0070532Y0081172D01*
X0070048Y0082339D01*
X0069485Y0082902D01*
X0070048Y0083466D01*
X0070532Y0084633D01*
X0070532Y0085896D01*
X0070048Y0087063D01*
X0069485Y0087627D01*
X0070048Y0088191D01*
X0070532Y0089357D01*
X0070532Y0090620D01*
X0070048Y0091787D01*
X0069485Y0092351D01*
X0070048Y0092915D01*
X0070532Y0094082D01*
X0070532Y0095345D01*
X0070048Y0096512D01*
X0069485Y0097076D01*
X0070048Y0097639D01*
X0070532Y0098806D01*
X0070532Y0100069D01*
X0070048Y0101236D01*
X0069155Y0102129D01*
X0067988Y0102613D01*
X0066509Y0102613D01*
X0066607Y0102760D01*
X0066862Y0103375D01*
X0066992Y0104027D01*
X0066992Y0107509D01*
X0066992Y0110991D01*
X0066862Y0111643D01*
X0066607Y0112257D01*
X0066238Y0112810D01*
X0065768Y0113280D01*
X0065215Y0113649D01*
X0064601Y0113903D01*
X0063949Y0114033D01*
X0063617Y0114033D01*
X0063617Y0107509D01*
X0063617Y0107509D01*
X0066992Y0107509D01*
X0063617Y0107509D01*
X0063617Y0107509D01*
X0063617Y0114033D01*
X0063284Y0114033D01*
X0062632Y0113903D01*
X0062018Y0113649D01*
X0061465Y0113280D01*
X0061113Y0112927D01*
X0061096Y0112945D01*
X0061096Y0114979D01*
X0062482Y0116366D01*
X0062847Y0117248D01*
X0062847Y0146120D01*
X0062948Y0146220D01*
X0063929Y0145239D01*
X0066966Y0145239D01*
X0069114Y0147387D01*
X0069114Y0150425D01*
X0068133Y0151406D01*
X0068233Y0151506D01*
X0070949Y0151506D01*
X0072044Y0150412D01*
X0072044Y0124841D01*
X0070484Y0123282D01*
X0069836Y0123282D01*
X0068597Y0122769D01*
X0067648Y0121820D01*
X0067135Y0120581D01*
X0067135Y0119240D01*
X0067648Y0118000D01*
X0068597Y0117052D01*
X0069836Y0116539D01*
X0071177Y0116539D01*
X0072416Y0117052D01*
X0073365Y0118000D01*
X0073878Y0119240D01*
X0073878Y0119888D01*
X0075803Y0121813D01*
X0076478Y0122488D01*
X0076844Y0123370D01*
X0076844Y0151884D01*
X0076478Y0152766D01*
X0073978Y0155266D01*
X0073303Y0155941D01*
X0072421Y0156306D01*
X0068233Y0156306D01*
X0066966Y0157573D01*
X0063929Y0157573D01*
X0063089Y0156734D01*
X0062049Y0157773D01*
X0060448Y0157773D01*
X0060448Y0153906D01*
X0060447Y0153906D01*
X0055448Y0153906D01*
X0055448Y0153906D01*
X0059314Y0153906D01*
X0060447Y0153906D01*
X0060447Y0153906D01*
X0060447Y0157773D01*
X0058846Y0157773D01*
X0057948Y0156875D01*
X0057049Y0157773D01*
X0055448Y0157773D01*
X0055448Y0153906D01*
X0055447Y0153906D01*
X0055447Y0157773D01*
X0053846Y0157773D01*
X0052806Y0156734D01*
X0051966Y0157573D01*
X0048929Y0157573D01*
X0047948Y0156592D01*
X0046966Y0157573D01*
X0043929Y0157573D01*
X0042948Y0156592D01*
X0041966Y0157573D01*
X0038929Y0157573D01*
X0037948Y0156592D01*
X0036966Y0157573D01*
X0033929Y0157573D01*
X0033089Y0156734D01*
X0032049Y0157773D01*
X0030448Y0157773D01*
X0030448Y0153906D01*
X0030447Y0153906D01*
X0025448Y0153906D01*
X0025448Y0153906D01*
X0029314Y0153906D01*
X0030447Y0153906D01*
X0030447Y0153906D01*
X0030447Y0157773D01*
X0028846Y0157773D01*
X0027948Y0156875D01*
X0027049Y0157773D01*
X0025448Y0157773D01*
X0025448Y0153906D01*
X0025447Y0153906D01*
X0020448Y0153906D01*
X0020448Y0153906D01*
X0021581Y0153906D01*
X0025447Y0153906D01*
X0025447Y0153906D01*
X0025447Y0157773D01*
X0023846Y0157773D01*
X0022947Y0156875D01*
X0022049Y0157773D01*
X0020448Y0157773D01*
X0020448Y0153906D01*
X0020447Y0153906D01*
X0016581Y0153906D01*
X0016581Y0152305D01*
X0017620Y0151265D01*
X0016781Y0150425D01*
X0016781Y0147387D01*
X0018929Y0145239D01*
X0021966Y0145239D01*
X0022948Y0146220D01*
X0023929Y0145239D01*
X0026966Y0145239D01*
X0027947Y0146220D01*
X0028929Y0145239D01*
X0031966Y0145239D01*
X0032948Y0146220D01*
X0033929Y0145239D01*
X0036966Y0145239D01*
X0037948Y0146220D01*
X0038929Y0145239D01*
X0041966Y0145239D01*
X0042948Y0146220D01*
X0043048Y0146120D01*
X0043048Y0143089D01*
X0041953Y0141995D01*
X0035659Y0141995D01*
X0034777Y0141630D01*
X0014338Y0121191D01*
X0013973Y0120309D01*
X0013973Y0113107D01*
X0013800Y0113280D01*
X0013247Y0113649D01*
X0012633Y0113903D01*
X0011981Y0114033D01*
X0011648Y0114033D01*
X0011316Y0114033D01*
X0010664Y0113903D01*
X0010050Y0113649D01*
X0009497Y0113280D01*
X0009027Y0112810D01*
X0008658Y0112257D01*
X0008403Y0111643D01*
X0008377Y0111513D01*
X0008377Y0162354D01*
X0088172Y0162354D01*
X0086966Y0159443D01*
X0086966Y0155968D01*
X0088297Y0152756D01*
X0090754Y0150299D01*
X0093966Y0148969D01*
X0097441Y0148969D01*
X0100653Y0150299D01*
X0103110Y0152756D01*
X0104440Y0155968D01*
X0104440Y0159443D01*
X0103235Y0162354D01*
X0152321Y0162354D01*
X0152321Y0006600D01*
X0103887Y0006600D01*
X0104440Y0007936D01*
X0104440Y0011412D01*
X0103110Y0014623D01*
X0100653Y0017081D01*
X0097441Y0018411D01*
X0093966Y0018411D01*
X0090754Y0017081D01*
X0088297Y0014623D01*
X0086966Y0011412D01*
X0086966Y0007936D01*
X0087520Y0006600D01*
X0008377Y0006600D01*
X0008377Y0008194D02*
X0042607Y0008194D01*
X0041009Y0009793D02*
X0008377Y0009793D01*
X0008377Y0011391D02*
X0040159Y0011391D01*
X0040159Y0012990D02*
X0008377Y0012990D01*
X0008377Y0014588D02*
X0039324Y0014588D01*
X0037726Y0016187D02*
X0008377Y0016187D01*
X0008377Y0017785D02*
X0036127Y0017785D01*
X0034529Y0019384D02*
X0008377Y0019384D01*
X0008377Y0020982D02*
X0032930Y0020982D01*
X0031332Y0022581D02*
X0008377Y0022581D01*
X0008377Y0024179D02*
X0029733Y0024179D01*
X0028355Y0025778D02*
X0008377Y0025778D01*
X0008377Y0027376D02*
X0028146Y0027376D01*
X0028146Y0028975D02*
X0008377Y0028975D01*
X0008377Y0030573D02*
X0028146Y0030573D01*
X0028146Y0032172D02*
X0008377Y0032172D01*
X0008377Y0033770D02*
X0028146Y0033770D01*
X0028146Y0035369D02*
X0008377Y0035369D01*
X0008377Y0036967D02*
X0028146Y0036967D01*
X0028146Y0038566D02*
X0008377Y0038566D01*
X0008377Y0040164D02*
X0028146Y0040164D01*
X0028146Y0041763D02*
X0008377Y0041763D01*
X0008377Y0043361D02*
X0028146Y0043361D01*
X0028146Y0044960D02*
X0008377Y0044960D01*
X0008377Y0046558D02*
X0028146Y0046558D01*
X0028146Y0048157D02*
X0008377Y0048157D01*
X0008377Y0049755D02*
X0028146Y0049755D01*
X0028146Y0051354D02*
X0008377Y0051354D01*
X0008377Y0052952D02*
X0028146Y0052952D01*
X0028146Y0054551D02*
X0008377Y0054551D01*
X0008377Y0056149D02*
X0028146Y0056149D01*
X0030546Y0063020D02*
X0030546Y0026761D01*
X0044759Y0012548D01*
X0047625Y0016187D02*
X0051609Y0016187D01*
X0052770Y0017348D02*
X0049959Y0014536D01*
X0049959Y0012748D01*
X0054558Y0012748D01*
X0054558Y0012348D01*
X0049959Y0012348D01*
X0049959Y0010560D01*
X0052770Y0007748D01*
X0054559Y0007748D01*
X0054559Y0012348D01*
X0054959Y0012348D01*
X0054959Y0012748D01*
X0059559Y0012748D01*
X0059559Y0014536D01*
X0056747Y0017348D01*
X0054959Y0017348D01*
X0054959Y0012748D01*
X0054559Y0012748D01*
X0054559Y0017348D01*
X0052770Y0017348D01*
X0054559Y0016187D02*
X0054959Y0016187D01*
X0054959Y0014588D02*
X0054559Y0014588D01*
X0054559Y0012990D02*
X0054959Y0012990D01*
X0054959Y0012348D02*
X0059559Y0012348D01*
X0059559Y0010560D01*
X0056747Y0007748D01*
X0054959Y0007748D01*
X0054959Y0012348D01*
X0054959Y0011391D02*
X0054559Y0011391D01*
X0054559Y0009793D02*
X0054959Y0009793D01*
X0054959Y0008194D02*
X0054559Y0008194D01*
X0057193Y0008194D02*
X0062607Y0008194D01*
X0062853Y0007948D02*
X0066664Y0007948D01*
X0069359Y0010643D01*
X0069359Y0013754D01*
X0092922Y0037318D01*
X0092922Y0029108D01*
X0093860Y0028171D01*
X0102272Y0028171D01*
X0103209Y0029108D01*
X0103209Y0030502D01*
X0133511Y0030502D01*
X0134502Y0029511D01*
X0135972Y0028902D01*
X0142364Y0028902D01*
X0143834Y0029511D01*
X0144959Y0030637D01*
X0145568Y0032107D01*
X0145568Y0033698D01*
X0144959Y0035168D01*
X0143834Y0036293D01*
X0142364Y0036902D01*
X0135972Y0036902D01*
X0134502Y0036293D01*
X0133511Y0035302D01*
X0103209Y0035302D01*
X0103209Y0037520D01*
X0102272Y0038457D01*
X0094062Y0038457D01*
X0096107Y0040502D01*
X0133511Y0040502D01*
X0134502Y0039511D01*
X0135972Y0038902D01*
X0142364Y0038902D01*
X0143834Y0039511D01*
X0144959Y0040637D01*
X0145568Y0042107D01*
X0145568Y0043698D01*
X0144959Y0045168D01*
X0143834Y0046293D01*
X0142364Y0046902D01*
X0140820Y0046902D01*
X0140820Y0076457D01*
X0142420Y0078057D01*
X0142420Y0081370D01*
X0140077Y0083713D01*
X0136763Y0083713D01*
X0134420Y0081370D01*
X0134420Y0078057D01*
X0136020Y0076457D01*
X0136020Y0046902D01*
X0135972Y0046902D01*
X0134502Y0046293D01*
X0133511Y0045302D01*
X0094635Y0045302D01*
X0093753Y0044937D01*
X0093078Y0044262D01*
X0065964Y0017148D01*
X0062853Y0017148D01*
X0060159Y0014453D01*
X0060159Y0010643D01*
X0062853Y0007948D01*
X0061009Y0009793D02*
X0058791Y0009793D01*
X0059559Y0011391D02*
X0060159Y0011391D01*
X0060159Y0012990D02*
X0059559Y0012990D01*
X0059507Y0014588D02*
X0060293Y0014588D01*
X0061892Y0016187D02*
X0057908Y0016187D01*
X0058099Y0019384D02*
X0061418Y0019384D01*
X0060159Y0020982D02*
X0059359Y0020982D01*
X0059359Y0022581D02*
X0060159Y0022581D01*
X0059733Y0024179D02*
X0059359Y0024179D01*
X0058135Y0025778D02*
X0058034Y0025778D01*
X0056536Y0027376D02*
X0053324Y0027376D01*
X0051726Y0028975D02*
X0054938Y0028975D01*
X0053339Y0030573D02*
X0050127Y0030573D01*
X0048529Y0032172D02*
X0051741Y0032172D01*
X0050142Y0033770D02*
X0046930Y0033770D01*
X0045332Y0035369D02*
X0048544Y0035369D01*
X0046945Y0036967D02*
X0043733Y0036967D01*
X0042395Y0038566D02*
X0045347Y0038566D01*
X0043748Y0040164D02*
X0042395Y0040164D01*
X0042395Y0041763D02*
X0042463Y0041763D01*
X0044719Y0042587D02*
X0044719Y0063020D01*
X0039995Y0063020D02*
X0039995Y0037312D01*
X0054759Y0022548D01*
X0051418Y0019384D02*
X0048099Y0019384D01*
X0049359Y0020982D02*
X0050159Y0020982D01*
X0050159Y0022581D02*
X0049359Y0022581D01*
X0049359Y0024179D02*
X0049733Y0024179D01*
X0048135Y0025778D02*
X0048034Y0025778D01*
X0046536Y0027376D02*
X0043324Y0027376D01*
X0041726Y0028975D02*
X0044938Y0028975D01*
X0043339Y0030573D02*
X0040127Y0030573D01*
X0038529Y0032172D02*
X0041741Y0032172D01*
X0040142Y0033770D02*
X0037670Y0033770D01*
X0037670Y0035369D02*
X0038544Y0035369D01*
X0035270Y0032036D02*
X0035270Y0063020D01*
X0032908Y0068298D02*
X0032344Y0068862D01*
X0031177Y0069345D01*
X0029914Y0069345D01*
X0028748Y0068862D01*
X0028184Y0068298D01*
X0027620Y0068862D01*
X0026453Y0069345D01*
X0025190Y0069345D01*
X0024023Y0068862D01*
X0023459Y0068298D01*
X0022895Y0068862D01*
X0021729Y0069345D01*
X0020466Y0069345D01*
X0019299Y0068862D01*
X0018735Y0068298D01*
X0018171Y0068862D01*
X0017004Y0069345D01*
X0015741Y0069345D01*
X0014574Y0068862D01*
X0014152Y0068439D01*
X0013800Y0068791D01*
X0013247Y0069161D01*
X0012633Y0069415D01*
X0012186Y0069504D01*
X0022413Y0069504D01*
X0022881Y0069973D01*
X0022881Y0100557D01*
X0022413Y0101025D01*
X0012186Y0101025D01*
X0012633Y0101114D01*
X0013247Y0101368D01*
X0013800Y0101738D01*
X0014152Y0102090D01*
X0014574Y0101668D01*
X0015741Y0101184D01*
X0017004Y0101184D01*
X0018171Y0101668D01*
X0018735Y0102231D01*
X0019299Y0101668D01*
X0020466Y0101184D01*
X0021729Y0101184D01*
X0022895Y0101668D01*
X0023459Y0102231D01*
X0024023Y0101668D01*
X0025190Y0101184D01*
X0026453Y0101184D01*
X0027620Y0101668D01*
X0028184Y0102231D01*
X0028748Y0101668D01*
X0029914Y0101184D01*
X0031177Y0101184D01*
X0032344Y0101668D01*
X0032908Y0102231D01*
X0033472Y0101668D01*
X0034639Y0101184D01*
X0035902Y0101184D01*
X0037069Y0101668D01*
X0037633Y0102231D01*
X0038196Y0101668D01*
X0039363Y0101184D01*
X0040626Y0101184D01*
X0041793Y0101668D01*
X0042357Y0102231D01*
X0042921Y0101668D01*
X0044088Y0101184D01*
X0045351Y0101184D01*
X0046518Y0101668D01*
X0047081Y0102231D01*
X0047645Y0101668D01*
X0048812Y0101184D01*
X0050075Y0101184D01*
X0051242Y0101668D01*
X0051806Y0102231D01*
X0052370Y0101668D01*
X0053536Y0101184D01*
X0054799Y0101184D01*
X0055966Y0101668D01*
X0056530Y0102231D01*
X0057094Y0101668D01*
X0058261Y0101184D01*
X0058345Y0101184D01*
X0057883Y0100069D01*
X0057883Y0098806D01*
X0058366Y0097639D01*
X0058930Y0097076D01*
X0058366Y0096512D01*
X0057883Y0095345D01*
X0057883Y0094082D01*
X0058366Y0092915D01*
X0022881Y0092915D01*
X0022881Y0091317D02*
X0058171Y0091317D01*
X0058366Y0091787D02*
X0057883Y0090620D01*
X0057883Y0089357D01*
X0058366Y0088191D01*
X0058930Y0087627D01*
X0058366Y0087063D01*
X0057883Y0085896D01*
X0057883Y0084633D01*
X0058366Y0083466D01*
X0058930Y0082902D01*
X0058366Y0082339D01*
X0057883Y0081172D01*
X0057883Y0079909D01*
X0058366Y0078742D01*
X0058930Y0078178D01*
X0058366Y0077614D01*
X0057883Y0076447D01*
X0057883Y0075184D01*
X0058366Y0074017D01*
X0058930Y0073454D01*
X0058366Y0072890D01*
X0057883Y0071723D01*
X0057883Y0070460D01*
X0058345Y0069345D01*
X0058261Y0069345D01*
X0057094Y0068862D01*
X0056530Y0068298D01*
X0055966Y0068862D01*
X0054799Y0069345D01*
X0053536Y0069345D01*
X0052370Y0068862D01*
X0051806Y0068298D01*
X0051242Y0068862D01*
X0050075Y0069345D01*
X0048812Y0069345D01*
X0047645Y0068862D01*
X0047081Y0068298D01*
X0046518Y0068862D01*
X0045351Y0069345D01*
X0044088Y0069345D01*
X0042921Y0068862D01*
X0042357Y0068298D01*
X0041793Y0068862D01*
X0040626Y0069345D01*
X0039363Y0069345D01*
X0038196Y0068862D01*
X0037633Y0068298D01*
X0037069Y0068862D01*
X0035902Y0069345D01*
X0034639Y0069345D01*
X0033472Y0068862D01*
X0032908Y0068298D01*
X0032161Y0068937D02*
X0033655Y0068937D01*
X0036885Y0068937D02*
X0038380Y0068937D01*
X0041610Y0068937D02*
X0043104Y0068937D01*
X0046334Y0068937D02*
X0047829Y0068937D01*
X0051059Y0068937D02*
X0052553Y0068937D01*
X0055783Y0068937D02*
X0057277Y0068937D01*
X0057883Y0070536D02*
X0022881Y0070536D01*
X0022881Y0072134D02*
X0058053Y0072134D01*
X0058651Y0073733D02*
X0022881Y0073733D01*
X0022881Y0075332D02*
X0057883Y0075332D01*
X0058083Y0076930D02*
X0022881Y0076930D01*
X0022881Y0078529D02*
X0058579Y0078529D01*
X0057883Y0080127D02*
X0022881Y0080127D01*
X0022881Y0081726D02*
X0058112Y0081726D01*
X0058508Y0083324D02*
X0022881Y0083324D01*
X0022881Y0084923D02*
X0057883Y0084923D01*
X0058142Y0086521D02*
X0022881Y0086521D01*
X0022881Y0088120D02*
X0058437Y0088120D01*
X0057883Y0089718D02*
X0022881Y0089718D01*
X0022881Y0094514D02*
X0057883Y0094514D01*
X0058201Y0096112D02*
X0022881Y0096112D01*
X0022881Y0097711D02*
X0058337Y0097711D01*
X0057883Y0099309D02*
X0022881Y0099309D01*
X0022530Y0100908D02*
X0058230Y0100908D01*
X0058892Y0107509D02*
X0058696Y0107706D01*
X0058696Y0115973D01*
X0060448Y0117725D01*
X0060448Y0148906D01*
X0057948Y0146220D02*
X0058048Y0146120D01*
X0058048Y0142112D01*
X0057193Y0142967D01*
X0052324Y0142967D01*
X0051387Y0142030D01*
X0051387Y0137161D01*
X0051768Y0136780D01*
X0051768Y0112824D01*
X0051242Y0113350D01*
X0050075Y0113833D01*
X0048812Y0113833D01*
X0047645Y0113350D01*
X0047081Y0112786D01*
X0046518Y0113350D01*
X0045351Y0113833D01*
X0044088Y0113833D01*
X0042921Y0113350D01*
X0042357Y0112786D01*
X0041793Y0113350D01*
X0040626Y0113833D01*
X0039363Y0113833D01*
X0038196Y0113350D01*
X0037633Y0112786D01*
X0037473Y0112945D01*
X0037473Y0116539D01*
X0037508Y0116539D01*
X0038445Y0117476D01*
X0038445Y0122345D01*
X0037508Y0123282D01*
X0032639Y0123282D01*
X0031702Y0122345D01*
X0031702Y0122310D01*
X0022785Y0122310D01*
X0021903Y0121945D01*
X0021228Y0121270D01*
X0019062Y0119104D01*
X0018773Y0118405D01*
X0018773Y0118837D01*
X0037131Y0137195D01*
X0043425Y0137195D01*
X0044307Y0137561D01*
X0044982Y0138236D01*
X0047482Y0140736D01*
X0047847Y0141618D01*
X0047847Y0146120D01*
X0047948Y0146220D01*
X0048929Y0145239D01*
X0051966Y0145239D01*
X0052948Y0146220D01*
X0053929Y0145239D01*
X0056966Y0145239D01*
X0057948Y0146220D01*
X0058048Y0145666D02*
X0057393Y0145666D01*
X0058048Y0144068D02*
X0047847Y0144068D01*
X0047847Y0145666D02*
X0048502Y0145666D01*
X0047847Y0142469D02*
X0051826Y0142469D01*
X0051387Y0140870D02*
X0047538Y0140870D01*
X0046018Y0139272D02*
X0051387Y0139272D01*
X0051387Y0137673D02*
X0044420Y0137673D01*
X0042948Y0139595D02*
X0036136Y0139595D01*
X0016373Y0119831D01*
X0016373Y0107509D01*
X0021097Y0107509D02*
X0021097Y0117745D01*
X0023262Y0119910D01*
X0035073Y0119910D01*
X0035073Y0107706D01*
X0035270Y0107509D01*
X0032673Y0113021D02*
X0032344Y0113350D01*
X0031177Y0113833D01*
X0029914Y0113833D01*
X0028748Y0113350D01*
X0028184Y0112786D01*
X0027620Y0113350D01*
X0026453Y0113833D01*
X0025190Y0113833D01*
X0024023Y0113350D01*
X0023497Y0112824D01*
X0023497Y0116751D01*
X0024257Y0117510D01*
X0031702Y0117510D01*
X0031702Y0117476D01*
X0032639Y0116539D01*
X0032673Y0116539D01*
X0032673Y0113021D01*
X0032673Y0113696D02*
X0031509Y0113696D01*
X0029583Y0113696D02*
X0026784Y0113696D01*
X0024859Y0113696D02*
X0023497Y0113696D01*
X0023497Y0115294D02*
X0032673Y0115294D01*
X0032285Y0116893D02*
X0023639Y0116893D01*
X0020048Y0120090D02*
X0020025Y0120090D01*
X0018809Y0118491D02*
X0018773Y0118491D01*
X0021624Y0121688D02*
X0021646Y0121688D01*
X0023222Y0123287D02*
X0051768Y0123287D01*
X0051768Y0124885D02*
X0024821Y0124885D01*
X0026419Y0126484D02*
X0051768Y0126484D01*
X0051768Y0128082D02*
X0028018Y0128082D01*
X0029616Y0129681D02*
X0051768Y0129681D01*
X0051768Y0131279D02*
X0031215Y0131279D01*
X0032813Y0132878D02*
X0051768Y0132878D01*
X0051768Y0134476D02*
X0034412Y0134476D01*
X0036010Y0136075D02*
X0051768Y0136075D01*
X0054168Y0139005D02*
X0054168Y0107509D01*
X0051768Y0113696D02*
X0050406Y0113696D01*
X0048481Y0113696D02*
X0045682Y0113696D01*
X0043756Y0113696D02*
X0040958Y0113696D01*
X0039032Y0113696D02*
X0037473Y0113696D01*
X0037473Y0115294D02*
X0051768Y0115294D01*
X0051768Y0116893D02*
X0037862Y0116893D01*
X0038445Y0118491D02*
X0051768Y0118491D01*
X0051768Y0120090D02*
X0038445Y0120090D01*
X0038445Y0121688D02*
X0051768Y0121688D01*
X0056568Y0121688D02*
X0058048Y0121688D01*
X0058048Y0120090D02*
X0056568Y0120090D01*
X0056568Y0118491D02*
X0057820Y0118491D01*
X0058048Y0118719D02*
X0057336Y0118008D01*
X0056661Y0117333D01*
X0056568Y0117108D01*
X0056568Y0136224D01*
X0057193Y0136224D01*
X0058048Y0137078D01*
X0058048Y0118719D01*
X0058048Y0123287D02*
X0056568Y0123287D01*
X0056568Y0124885D02*
X0058048Y0124885D01*
X0058048Y0126484D02*
X0056568Y0126484D01*
X0056568Y0128082D02*
X0058048Y0128082D01*
X0058048Y0129681D02*
X0056568Y0129681D01*
X0056568Y0131279D02*
X0058048Y0131279D01*
X0058048Y0132878D02*
X0056568Y0132878D01*
X0056568Y0134476D02*
X0058048Y0134476D01*
X0058048Y0136075D02*
X0056568Y0136075D01*
X0054168Y0139005D02*
X0054759Y0139595D01*
X0057691Y0142469D02*
X0058048Y0142469D01*
X0062847Y0142469D02*
X0072044Y0142469D01*
X0072044Y0140870D02*
X0062847Y0140870D01*
X0062847Y0139272D02*
X0072044Y0139272D01*
X0072044Y0137673D02*
X0062847Y0137673D01*
X0062847Y0136075D02*
X0072044Y0136075D01*
X0072044Y0134476D02*
X0062847Y0134476D01*
X0062847Y0132878D02*
X0072044Y0132878D01*
X0072044Y0131279D02*
X0062847Y0131279D01*
X0062847Y0129681D02*
X0072044Y0129681D01*
X0072044Y0128082D02*
X0062847Y0128082D01*
X0062847Y0126484D02*
X0072044Y0126484D01*
X0072044Y0124885D02*
X0062847Y0124885D01*
X0062847Y0123287D02*
X0070489Y0123287D01*
X0067594Y0121688D02*
X0062847Y0121688D01*
X0062847Y0120090D02*
X0067135Y0120090D01*
X0067445Y0118491D02*
X0062847Y0118491D01*
X0062700Y0116893D02*
X0068981Y0116893D01*
X0070507Y0119910D02*
X0074444Y0123847D01*
X0074444Y0151406D01*
X0071944Y0153906D01*
X0065448Y0153906D01*
X0067684Y0156856D02*
X0086966Y0156856D01*
X0086966Y0158454D02*
X0008377Y0158454D01*
X0008377Y0156856D02*
X0017928Y0156856D01*
X0018846Y0157773D02*
X0016581Y0155508D01*
X0016581Y0153906D01*
X0020447Y0153906D01*
X0020447Y0153906D01*
X0020447Y0157773D01*
X0018846Y0157773D01*
X0020447Y0156856D02*
X0020448Y0156856D01*
X0020447Y0155257D02*
X0020448Y0155257D01*
X0025447Y0155257D02*
X0025448Y0155257D01*
X0025447Y0156856D02*
X0025448Y0156856D01*
X0030447Y0156856D02*
X0030448Y0156856D01*
X0030447Y0155257D02*
X0030448Y0155257D01*
X0032967Y0156856D02*
X0033211Y0156856D01*
X0037684Y0156856D02*
X0038211Y0156856D01*
X0042684Y0156856D02*
X0043211Y0156856D01*
X0047684Y0156856D02*
X0048211Y0156856D01*
X0052684Y0156856D02*
X0052928Y0156856D01*
X0055447Y0156856D02*
X0055448Y0156856D01*
X0055447Y0155257D02*
X0055448Y0155257D01*
X0060447Y0155257D02*
X0060448Y0155257D01*
X0060447Y0156856D02*
X0060448Y0156856D01*
X0062967Y0156856D02*
X0063211Y0156856D01*
X0069078Y0150462D02*
X0071994Y0150462D01*
X0072044Y0148863D02*
X0069114Y0148863D01*
X0068992Y0147265D02*
X0072044Y0147265D01*
X0072044Y0145666D02*
X0067393Y0145666D01*
X0063502Y0145666D02*
X0062847Y0145666D01*
X0062847Y0144068D02*
X0072044Y0144068D01*
X0076844Y0144068D02*
X0152321Y0144068D01*
X0152321Y0145666D02*
X0076844Y0145666D01*
X0076844Y0147265D02*
X0152321Y0147265D01*
X0152321Y0148863D02*
X0076844Y0148863D01*
X0076844Y0150462D02*
X0090591Y0150462D01*
X0088993Y0152060D02*
X0076770Y0152060D01*
X0075585Y0153659D02*
X0087923Y0153659D01*
X0087261Y0155257D02*
X0073987Y0155257D01*
X0076844Y0142469D02*
X0152321Y0142469D01*
X0152321Y0140870D02*
X0076844Y0140870D01*
X0076844Y0139272D02*
X0111101Y0139272D01*
X0111101Y0139795D02*
X0111101Y0132623D01*
X0112039Y0131686D01*
X0119211Y0131686D01*
X0120148Y0132623D01*
X0120148Y0133809D01*
X0136692Y0133809D01*
X0136692Y0132623D01*
X0137629Y0131686D01*
X0138815Y0131686D01*
X0138815Y0123713D01*
X0136763Y0123713D01*
X0134420Y0121370D01*
X0134420Y0118057D01*
X0136763Y0115713D01*
X0140077Y0115713D01*
X0142420Y0118057D01*
X0142420Y0120319D01*
X0142575Y0120474D01*
X0143250Y0121149D01*
X0143615Y0122031D01*
X0143615Y0131686D01*
X0144801Y0131686D01*
X0145738Y0132623D01*
X0145738Y0139795D01*
X0144801Y0140733D01*
X0137629Y0140733D01*
X0136692Y0139795D01*
X0136692Y0138609D01*
X0120148Y0138609D01*
X0120148Y0139795D01*
X0119211Y0140733D01*
X0112039Y0140733D01*
X0111101Y0139795D01*
X0111101Y0137673D02*
X0076844Y0137673D01*
X0076844Y0136075D02*
X0111101Y0136075D01*
X0111101Y0134476D02*
X0076844Y0134476D01*
X0076844Y0132878D02*
X0111101Y0132878D01*
X0115625Y0136209D02*
X0141215Y0136209D01*
X0141215Y0122509D01*
X0138420Y0119713D01*
X0141256Y0116893D02*
X0152321Y0116893D01*
X0152321Y0118491D02*
X0142420Y0118491D01*
X0142420Y0120090D02*
X0152321Y0120090D01*
X0152321Y0121688D02*
X0143473Y0121688D01*
X0143615Y0123287D02*
X0152321Y0123287D01*
X0152321Y0124885D02*
X0143615Y0124885D01*
X0143615Y0126484D02*
X0152321Y0126484D01*
X0152321Y0128082D02*
X0143615Y0128082D01*
X0143615Y0129681D02*
X0152321Y0129681D01*
X0152321Y0131279D02*
X0143615Y0131279D01*
X0145738Y0132878D02*
X0152321Y0132878D01*
X0152321Y0134476D02*
X0145738Y0134476D01*
X0145738Y0136075D02*
X0152321Y0136075D01*
X0152321Y0137673D02*
X0145738Y0137673D01*
X0145738Y0139272D02*
X0152321Y0139272D01*
X0152321Y0150462D02*
X0145857Y0150462D01*
X0145816Y0150308D02*
X0145938Y0150766D01*
X0145938Y0153752D01*
X0141390Y0153752D01*
X0141390Y0154100D01*
X0145938Y0154100D01*
X0145938Y0157086D01*
X0145816Y0157544D01*
X0145579Y0157954D01*
X0145244Y0158290D01*
X0144833Y0158527D01*
X0144375Y0158649D01*
X0141390Y0158649D01*
X0141390Y0154100D01*
X0141041Y0154100D01*
X0141041Y0153752D01*
X0136492Y0153752D01*
X0136492Y0150766D01*
X0136615Y0150308D01*
X0136852Y0149898D01*
X0137187Y0149562D01*
X0137597Y0149325D01*
X0138055Y0149203D01*
X0141041Y0149203D01*
X0141041Y0153751D01*
X0141390Y0153751D01*
X0141390Y0149203D01*
X0144375Y0149203D01*
X0144833Y0149325D01*
X0145244Y0149562D01*
X0145579Y0149898D01*
X0145816Y0150308D01*
X0145938Y0152060D02*
X0152321Y0152060D01*
X0152321Y0153659D02*
X0145938Y0153659D01*
X0145938Y0155257D02*
X0152321Y0155257D01*
X0152321Y0156856D02*
X0145938Y0156856D01*
X0144959Y0158454D02*
X0152321Y0158454D01*
X0152321Y0160053D02*
X0104188Y0160053D01*
X0104440Y0158454D02*
X0111881Y0158454D01*
X0112007Y0158527D02*
X0111596Y0158290D01*
X0111261Y0157954D01*
X0111024Y0157544D01*
X0110901Y0157086D01*
X0110901Y0154100D01*
X0115450Y0154100D01*
X0115450Y0153752D01*
X0110901Y0153752D01*
X0110901Y0150766D01*
X0111024Y0150308D01*
X0111261Y0149898D01*
X0111596Y0149562D01*
X0112007Y0149325D01*
X0112464Y0149203D01*
X0115450Y0149203D01*
X0115450Y0153751D01*
X0115799Y0153751D01*
X0115799Y0149203D01*
X0118785Y0149203D01*
X0119243Y0149325D01*
X0119653Y0149562D01*
X0119988Y0149898D01*
X0120225Y0150308D01*
X0120348Y0150766D01*
X0120348Y0153752D01*
X0115799Y0153752D01*
X0115799Y0154100D01*
X0120348Y0154100D01*
X0120348Y0157086D01*
X0120225Y0157544D01*
X0119988Y0157954D01*
X0119653Y0158290D01*
X0119243Y0158527D01*
X0118785Y0158649D01*
X0115799Y0158649D01*
X0115799Y0154100D01*
X0115450Y0154100D01*
X0115450Y0158649D01*
X0112464Y0158649D01*
X0112007Y0158527D01*
X0110901Y0156856D02*
X0104440Y0156856D01*
X0104146Y0155257D02*
X0110901Y0155257D01*
X0110901Y0153659D02*
X0103484Y0153659D01*
X0102414Y0152060D02*
X0110901Y0152060D01*
X0110983Y0150462D02*
X0100815Y0150462D01*
X0103526Y0161651D02*
X0152321Y0161651D01*
X0141390Y0158454D02*
X0141041Y0158454D01*
X0141041Y0158649D02*
X0138055Y0158649D01*
X0137597Y0158527D01*
X0137187Y0158290D01*
X0136852Y0157954D01*
X0136615Y0157544D01*
X0136492Y0157086D01*
X0136492Y0154100D01*
X0141041Y0154100D01*
X0141041Y0158649D01*
X0141041Y0156856D02*
X0141390Y0156856D01*
X0141390Y0155257D02*
X0141041Y0155257D01*
X0141041Y0153659D02*
X0141390Y0153659D01*
X0141390Y0152060D02*
X0141041Y0152060D01*
X0141041Y0150462D02*
X0141390Y0150462D01*
X0136573Y0150462D02*
X0120266Y0150462D01*
X0120348Y0152060D02*
X0136492Y0152060D01*
X0136492Y0153659D02*
X0120348Y0153659D01*
X0120348Y0155257D02*
X0136492Y0155257D01*
X0136492Y0156856D02*
X0120348Y0156856D01*
X0119368Y0158454D02*
X0137472Y0158454D01*
X0136692Y0139272D02*
X0120148Y0139272D01*
X0120148Y0132878D02*
X0136692Y0132878D01*
X0138815Y0131279D02*
X0076844Y0131279D01*
X0076844Y0129681D02*
X0138815Y0129681D01*
X0138815Y0128082D02*
X0076844Y0128082D01*
X0076844Y0126484D02*
X0138815Y0126484D01*
X0138815Y0124885D02*
X0076844Y0124885D01*
X0076809Y0123287D02*
X0136337Y0123287D01*
X0134738Y0121688D02*
X0075679Y0121688D01*
X0075803Y0121813D02*
X0075803Y0121813D01*
X0074080Y0120090D02*
X0134420Y0120090D01*
X0134420Y0118491D02*
X0103148Y0118491D01*
X0103049Y0118663D02*
X0103286Y0118252D01*
X0103409Y0117794D01*
X0103409Y0114395D01*
X0098447Y0114395D01*
X0098447Y0113633D01*
X0103409Y0113633D01*
X0103409Y0110234D01*
X0103286Y0109776D01*
X0103049Y0109366D01*
X0102714Y0109030D01*
X0102304Y0108794D01*
X0101846Y0108671D01*
X0098447Y0108671D01*
X0098447Y0113633D01*
X0097684Y0113633D01*
X0092722Y0113633D01*
X0092722Y0110234D01*
X0092845Y0109776D01*
X0093082Y0109366D01*
X0093417Y0109030D01*
X0093828Y0108794D01*
X0094285Y0108671D01*
X0097684Y0108671D01*
X0097684Y0113633D01*
X0097684Y0114395D01*
X0092722Y0114395D01*
X0092722Y0117794D01*
X0092845Y0118252D01*
X0093082Y0118663D01*
X0093417Y0118998D01*
X0093828Y0119235D01*
X0094285Y0119357D01*
X0097684Y0119357D01*
X0097684Y0114395D01*
X0098447Y0114395D01*
X0098447Y0119357D01*
X0101846Y0119357D01*
X0102304Y0119235D01*
X0102714Y0118998D01*
X0103049Y0118663D01*
X0103409Y0116893D02*
X0135584Y0116893D01*
X0152321Y0115294D02*
X0103409Y0115294D01*
X0103409Y0112097D02*
X0152321Y0112097D01*
X0152321Y0110499D02*
X0103409Y0110499D01*
X0102489Y0108900D02*
X0152321Y0108900D01*
X0152321Y0107302D02*
X0066992Y0107302D01*
X0066992Y0108900D02*
X0093643Y0108900D01*
X0092722Y0110499D02*
X0066992Y0110499D01*
X0066674Y0112097D02*
X0092722Y0112097D01*
X0092722Y0115294D02*
X0061411Y0115294D01*
X0061096Y0113696D02*
X0062131Y0113696D01*
X0063617Y0113696D02*
X0063617Y0113696D01*
X0065102Y0113696D02*
X0097684Y0113696D01*
X0098447Y0113696D02*
X0152321Y0113696D01*
X0152321Y0105703D02*
X0066992Y0105703D01*
X0066992Y0104105D02*
X0152321Y0104105D01*
X0152321Y0102506D02*
X0068245Y0102506D01*
X0070184Y0100908D02*
X0152321Y0100908D01*
X0152321Y0099309D02*
X0070532Y0099309D01*
X0070078Y0097711D02*
X0152321Y0097711D01*
X0152321Y0096112D02*
X0070214Y0096112D01*
X0070532Y0094514D02*
X0152321Y0094514D01*
X0152321Y0092915D02*
X0070048Y0092915D01*
X0070243Y0091317D02*
X0152321Y0091317D01*
X0152321Y0089718D02*
X0070532Y0089718D01*
X0069977Y0088120D02*
X0152321Y0088120D01*
X0152321Y0086521D02*
X0070273Y0086521D01*
X0070532Y0084923D02*
X0152321Y0084923D01*
X0152321Y0083324D02*
X0140466Y0083324D01*
X0142065Y0081726D02*
X0152321Y0081726D01*
X0152321Y0080127D02*
X0142420Y0080127D01*
X0142420Y0078529D02*
X0152321Y0078529D01*
X0152321Y0076930D02*
X0141293Y0076930D01*
X0140820Y0075332D02*
X0152321Y0075332D01*
X0152321Y0073733D02*
X0140820Y0073733D01*
X0140820Y0072134D02*
X0152321Y0072134D01*
X0152321Y0070536D02*
X0140820Y0070536D01*
X0140820Y0068937D02*
X0152321Y0068937D01*
X0152321Y0067339D02*
X0140820Y0067339D01*
X0140820Y0065740D02*
X0152321Y0065740D01*
X0152321Y0064142D02*
X0140820Y0064142D01*
X0140820Y0062543D02*
X0152321Y0062543D01*
X0152321Y0060945D02*
X0140820Y0060945D01*
X0140820Y0059346D02*
X0152321Y0059346D01*
X0152321Y0057748D02*
X0140820Y0057748D01*
X0140820Y0056149D02*
X0152321Y0056149D01*
X0152321Y0054551D02*
X0140820Y0054551D01*
X0140820Y0052952D02*
X0152321Y0052952D01*
X0152321Y0051354D02*
X0140820Y0051354D01*
X0140820Y0049755D02*
X0152321Y0049755D01*
X0152321Y0048157D02*
X0140820Y0048157D01*
X0143194Y0046558D02*
X0152321Y0046558D01*
X0152321Y0044960D02*
X0145045Y0044960D01*
X0145568Y0043361D02*
X0152321Y0043361D01*
X0152321Y0041763D02*
X0145426Y0041763D01*
X0144487Y0040164D02*
X0152321Y0040164D01*
X0152321Y0038566D02*
X0094170Y0038566D01*
X0092922Y0036967D02*
X0092572Y0036967D01*
X0092922Y0035369D02*
X0090973Y0035369D01*
X0089375Y0033770D02*
X0092922Y0033770D01*
X0092922Y0032172D02*
X0087776Y0032172D01*
X0086178Y0030573D02*
X0092922Y0030573D01*
X0093056Y0028975D02*
X0084579Y0028975D01*
X0082981Y0027376D02*
X0152321Y0027376D01*
X0152321Y0025778D02*
X0144350Y0025778D01*
X0143834Y0026293D02*
X0142364Y0026902D01*
X0135972Y0026902D01*
X0134502Y0026293D01*
X0133377Y0025168D01*
X0132768Y0023698D01*
X0132768Y0022107D01*
X0133377Y0020637D01*
X0134502Y0019511D01*
X0135972Y0018902D01*
X0142364Y0018902D01*
X0143834Y0019511D01*
X0144959Y0020637D01*
X0145568Y0022107D01*
X0145568Y0023698D01*
X0144959Y0025168D01*
X0143834Y0026293D01*
X0145369Y0024179D02*
X0152321Y0024179D01*
X0152321Y0022581D02*
X0145568Y0022581D01*
X0145102Y0020982D02*
X0152321Y0020982D01*
X0152321Y0019384D02*
X0143525Y0019384D01*
X0134810Y0019384D02*
X0074988Y0019384D01*
X0076587Y0020982D02*
X0133234Y0020982D01*
X0132768Y0022581D02*
X0078185Y0022581D01*
X0079784Y0024179D02*
X0132967Y0024179D01*
X0133986Y0025778D02*
X0081382Y0025778D01*
X0077791Y0028975D02*
X0061726Y0028975D01*
X0060127Y0030573D02*
X0079390Y0030573D01*
X0080988Y0032172D02*
X0058529Y0032172D01*
X0056930Y0033770D02*
X0082587Y0033770D01*
X0084185Y0035369D02*
X0055332Y0035369D01*
X0053733Y0036967D02*
X0085784Y0036967D01*
X0087382Y0038566D02*
X0052135Y0038566D01*
X0050536Y0040164D02*
X0088981Y0040164D01*
X0090579Y0041763D02*
X0048938Y0041763D01*
X0047339Y0043361D02*
X0092178Y0043361D01*
X0093808Y0044960D02*
X0047119Y0044960D01*
X0047119Y0046558D02*
X0135142Y0046558D01*
X0136020Y0048157D02*
X0047119Y0048157D01*
X0047119Y0049755D02*
X0136020Y0049755D01*
X0136020Y0051354D02*
X0047119Y0051354D01*
X0047119Y0052952D02*
X0136020Y0052952D01*
X0136020Y0054551D02*
X0047119Y0054551D01*
X0047119Y0056149D02*
X0136020Y0056149D01*
X0136020Y0057748D02*
X0066257Y0057748D01*
X0066953Y0059346D02*
X0136020Y0059346D01*
X0136020Y0060945D02*
X0066992Y0060945D01*
X0066992Y0062543D02*
X0136020Y0062543D01*
X0136020Y0064142D02*
X0066992Y0064142D01*
X0066992Y0065740D02*
X0136020Y0065740D01*
X0136020Y0067339D02*
X0066785Y0067339D01*
X0069693Y0068937D02*
X0136020Y0068937D01*
X0136020Y0070536D02*
X0070532Y0070536D01*
X0070361Y0072134D02*
X0136020Y0072134D01*
X0136020Y0073733D02*
X0069764Y0073733D01*
X0070532Y0075332D02*
X0136020Y0075332D01*
X0135546Y0076930D02*
X0070332Y0076930D01*
X0069835Y0078529D02*
X0134420Y0078529D01*
X0134420Y0080127D02*
X0070532Y0080127D01*
X0070302Y0081726D02*
X0134775Y0081726D01*
X0136374Y0083324D02*
X0069906Y0083324D01*
X0058930Y0092351D02*
X0058366Y0091787D01*
X0058930Y0092351D02*
X0058366Y0092915D01*
X0063617Y0108900D02*
X0063617Y0108900D01*
X0063617Y0110499D02*
X0063617Y0110499D01*
X0063617Y0112097D02*
X0063617Y0112097D01*
X0072032Y0116893D02*
X0092722Y0116893D01*
X0092983Y0118491D02*
X0073568Y0118491D01*
X0097684Y0118491D02*
X0098447Y0118491D01*
X0098447Y0116893D02*
X0097684Y0116893D01*
X0097684Y0115294D02*
X0098447Y0115294D01*
X0098447Y0112097D02*
X0097684Y0112097D01*
X0097684Y0110499D02*
X0098447Y0110499D01*
X0098447Y0108900D02*
X0097684Y0108900D01*
X0115450Y0150462D02*
X0115799Y0150462D01*
X0115799Y0152060D02*
X0115450Y0152060D01*
X0115450Y0153659D02*
X0115799Y0153659D01*
X0115799Y0155257D02*
X0115450Y0155257D01*
X0115450Y0156856D02*
X0115799Y0156856D01*
X0115799Y0158454D02*
X0115450Y0158454D01*
X0087881Y0161651D02*
X0008377Y0161651D01*
X0008377Y0160053D02*
X0087219Y0160053D01*
X0053502Y0145666D02*
X0052393Y0145666D01*
X0045448Y0148906D02*
X0045448Y0142095D01*
X0042948Y0139595D01*
X0042427Y0142469D02*
X0008377Y0142469D01*
X0008377Y0140870D02*
X0034018Y0140870D01*
X0032419Y0139272D02*
X0008377Y0139272D01*
X0008377Y0137673D02*
X0030821Y0137673D01*
X0029222Y0136075D02*
X0008377Y0136075D01*
X0008377Y0134476D02*
X0027624Y0134476D01*
X0026025Y0132878D02*
X0008377Y0132878D01*
X0008377Y0131279D02*
X0024427Y0131279D01*
X0022828Y0129681D02*
X0008377Y0129681D01*
X0008377Y0128082D02*
X0021229Y0128082D01*
X0019631Y0126484D02*
X0008377Y0126484D01*
X0008377Y0124885D02*
X0018032Y0124885D01*
X0016434Y0123287D02*
X0008377Y0123287D01*
X0008377Y0121688D02*
X0014835Y0121688D01*
X0013973Y0120090D02*
X0008377Y0120090D01*
X0008377Y0118491D02*
X0013973Y0118491D01*
X0013973Y0116893D02*
X0008377Y0116893D01*
X0008377Y0115294D02*
X0013973Y0115294D01*
X0013973Y0113696D02*
X0013134Y0113696D01*
X0011648Y0113696D02*
X0011648Y0113696D01*
X0011648Y0114033D02*
X0011648Y0107509D01*
X0011648Y0107509D01*
X0011648Y0114033D01*
X0010163Y0113696D02*
X0008377Y0113696D01*
X0008377Y0112097D02*
X0008591Y0112097D01*
X0011648Y0112097D02*
X0011648Y0112097D01*
X0011648Y0110499D02*
X0011648Y0110499D01*
X0011648Y0108900D02*
X0011648Y0108900D01*
X0008377Y0103504D02*
X0008377Y0101025D01*
X0011110Y0101025D01*
X0010664Y0101114D01*
X0010050Y0101368D01*
X0009497Y0101738D01*
X0009027Y0102208D01*
X0008658Y0102760D01*
X0008403Y0103375D01*
X0008377Y0103504D01*
X0008377Y0102506D02*
X0008827Y0102506D01*
X0008377Y0069504D02*
X0011110Y0069504D01*
X0010664Y0069415D01*
X0010050Y0069161D01*
X0009497Y0068791D01*
X0009027Y0068321D01*
X0008658Y0067769D01*
X0008403Y0067154D01*
X0008377Y0067025D01*
X0008377Y0069504D01*
X0008377Y0068937D02*
X0009716Y0068937D01*
X0008480Y0067339D02*
X0008377Y0067339D01*
X0013581Y0068937D02*
X0014758Y0068937D01*
X0017988Y0068937D02*
X0019482Y0068937D01*
X0022712Y0068937D02*
X0024206Y0068937D01*
X0027437Y0068937D02*
X0028931Y0068937D01*
X0011648Y0062543D02*
X0011648Y0062543D01*
X0011648Y0060945D02*
X0011648Y0060945D01*
X0011648Y0059346D02*
X0011648Y0059346D01*
X0011648Y0057748D02*
X0011648Y0057748D01*
X0009008Y0057748D02*
X0008377Y0057748D01*
X0032946Y0030573D02*
X0033339Y0030573D01*
X0032946Y0028975D02*
X0034938Y0028975D01*
X0036536Y0027376D02*
X0033324Y0027376D01*
X0034923Y0025778D02*
X0038135Y0025778D01*
X0039733Y0024179D02*
X0036521Y0024179D01*
X0038120Y0022581D02*
X0040159Y0022581D01*
X0040159Y0020982D02*
X0039719Y0020982D01*
X0041317Y0019384D02*
X0041418Y0019384D01*
X0042916Y0017785D02*
X0066602Y0017785D01*
X0068099Y0019384D02*
X0068200Y0019384D01*
X0069359Y0020982D02*
X0069799Y0020982D01*
X0069359Y0022581D02*
X0071397Y0022581D01*
X0072996Y0024179D02*
X0069359Y0024179D01*
X0068034Y0025778D02*
X0074594Y0025778D01*
X0076193Y0027376D02*
X0063324Y0027376D01*
X0064759Y0022548D02*
X0044719Y0042587D01*
X0035270Y0032036D02*
X0044759Y0022548D01*
X0049224Y0014588D02*
X0050010Y0014588D01*
X0049959Y0012990D02*
X0049359Y0012990D01*
X0049359Y0011391D02*
X0049959Y0011391D01*
X0050726Y0009793D02*
X0048508Y0009793D01*
X0046910Y0008194D02*
X0052324Y0008194D01*
X0064759Y0012548D02*
X0095113Y0042902D01*
X0139168Y0042902D01*
X0138420Y0043650D01*
X0138420Y0079713D01*
X0133849Y0040164D02*
X0095769Y0040164D01*
X0098066Y0033314D02*
X0098477Y0032902D01*
X0139168Y0032902D01*
X0142538Y0028975D02*
X0152321Y0028975D01*
X0152321Y0030573D02*
X0144896Y0030573D01*
X0145568Y0032172D02*
X0152321Y0032172D01*
X0152321Y0033770D02*
X0145538Y0033770D01*
X0144758Y0035369D02*
X0152321Y0035369D01*
X0152321Y0036967D02*
X0103209Y0036967D01*
X0103209Y0035369D02*
X0133578Y0035369D01*
X0135798Y0028975D02*
X0103075Y0028975D01*
X0098952Y0017785D02*
X0152321Y0017785D01*
X0152321Y0016187D02*
X0101547Y0016187D01*
X0103125Y0014588D02*
X0152321Y0014588D01*
X0152321Y0012990D02*
X0103787Y0012990D01*
X0104440Y0011391D02*
X0152321Y0011391D01*
X0152321Y0009793D02*
X0104440Y0009793D01*
X0104440Y0008194D02*
X0152321Y0008194D01*
X0092454Y0017785D02*
X0073390Y0017785D01*
X0071791Y0016187D02*
X0089860Y0016187D01*
X0088282Y0014588D02*
X0070193Y0014588D01*
X0069359Y0012990D02*
X0087620Y0012990D01*
X0086966Y0011391D02*
X0069359Y0011391D01*
X0068508Y0009793D02*
X0086966Y0009793D01*
X0086966Y0008194D02*
X0066910Y0008194D01*
X0063617Y0057748D02*
X0063617Y0057748D01*
X0063617Y0059346D02*
X0063617Y0059346D01*
X0063617Y0060945D02*
X0063617Y0060945D01*
X0063617Y0062543D02*
X0063617Y0062543D01*
X0043048Y0144068D02*
X0008377Y0144068D01*
X0008377Y0145666D02*
X0018502Y0145666D01*
X0016903Y0147265D02*
X0008377Y0147265D01*
X0008377Y0148863D02*
X0016781Y0148863D01*
X0016817Y0150462D02*
X0008377Y0150462D01*
X0008377Y0152060D02*
X0016825Y0152060D01*
X0016581Y0153659D02*
X0008377Y0153659D01*
X0008377Y0155257D02*
X0016581Y0155257D01*
X0022393Y0145666D02*
X0023502Y0145666D01*
X0027393Y0145666D02*
X0028502Y0145666D01*
X0032393Y0145666D02*
X0033502Y0145666D01*
X0037393Y0145666D02*
X0038502Y0145666D01*
X0042393Y0145666D02*
X0043048Y0145666D01*
D18*
X0040192Y0128178D03*
X0012633Y0143926D03*
X0012633Y0155737D03*
X0011451Y0118335D03*
X0032318Y0096682D03*
X0052003Y0096682D03*
X0052003Y0076997D03*
X0032318Y0076997D03*
X0059877Y0049438D03*
X0079562Y0033690D03*
X0098066Y0021485D03*
X0117751Y0009674D03*
X0141373Y0009674D03*
X0149247Y0017548D03*
X0150428Y0037627D03*
X0146491Y0069123D03*
X0146491Y0092745D03*
X0146491Y0116367D03*
X0146491Y0143926D03*
X0114995Y0116367D03*
X0114995Y0096682D03*
X0083499Y0088808D03*
X0083499Y0065186D03*
X0103184Y0049438D03*
X0114995Y0065186D03*
X0070507Y0119910D03*
X0079562Y0124241D03*
X0095310Y0139989D03*
X0079562Y0155737D03*
X0015388Y0049044D03*
X0015388Y0033296D03*
X0015388Y0009674D03*
X0031136Y0009674D03*
X0074444Y0009674D03*
D19*
X0035073Y0119910D03*
X0054759Y0139595D03*
M02*
