G75*
%MOIN*%
%OFA0B0*%
%FSLAX25Y25*%
%IPPOS*%
%LPD*%
%AMOC8*
5,1,8,0,0,1.08239X$1,22.5*
%
%ADD10C,0.08674*%
%ADD11OC8,0.05600*%
%ADD12C,0.05600*%
%ADD13R,0.06646X0.06646*%
%ADD14R,0.07887X0.07887*%
%ADD15C,0.03950*%
%ADD16OC8,0.04934*%
%ADD17OC8,0.06800*%
%ADD18C,0.04343*%
%ADD19R,0.04343X0.04343*%
D10*
X0095703Y0009674D03*
X0095703Y0157706D03*
D11*
X0138420Y0119713D03*
X0138420Y0079713D03*
D12*
X0136768Y0042902D02*
X0141568Y0042902D01*
X0141568Y0032902D02*
X0136768Y0032902D01*
X0136768Y0022902D02*
X0141568Y0022902D01*
D13*
X0141215Y0136209D03*
X0141215Y0153926D03*
X0115625Y0153926D03*
X0115625Y0136209D03*
D14*
X0098066Y0114014D03*
X0098066Y0033314D03*
D15*
X0063617Y0059871D02*
X0063617Y0066169D01*
X0061058Y0071091D02*
X0067356Y0071091D01*
X0067356Y0075816D02*
X0061058Y0075816D01*
X0061058Y0080540D02*
X0067356Y0080540D01*
X0067356Y0085265D02*
X0061058Y0085265D01*
X0061058Y0089989D02*
X0067356Y0089989D01*
X0067356Y0094713D02*
X0061058Y0094713D01*
X0061058Y0099438D02*
X0067356Y0099438D01*
X0063617Y0104360D02*
X0063617Y0110658D01*
X0058892Y0110658D02*
X0058892Y0104360D01*
X0054168Y0104360D02*
X0054168Y0110658D01*
X0049444Y0110658D02*
X0049444Y0104360D01*
X0044719Y0104360D02*
X0044719Y0110658D01*
X0039995Y0110658D02*
X0039995Y0104360D01*
X0035270Y0104360D02*
X0035270Y0110658D01*
X0030546Y0110658D02*
X0030546Y0104360D01*
X0025822Y0104360D02*
X0025822Y0110658D01*
X0021097Y0110658D02*
X0021097Y0104360D01*
X0016373Y0104360D02*
X0016373Y0110658D01*
X0011648Y0110658D02*
X0011648Y0104360D01*
X0011648Y0066169D02*
X0011648Y0059871D01*
X0016373Y0059871D02*
X0016373Y0066169D01*
X0021097Y0066169D02*
X0021097Y0059871D01*
X0025822Y0059871D02*
X0025822Y0066169D01*
X0030546Y0066169D02*
X0030546Y0059871D01*
X0035270Y0059871D02*
X0035270Y0066169D01*
X0039995Y0066169D02*
X0039995Y0059871D01*
X0044719Y0059871D02*
X0044719Y0066169D01*
X0049444Y0066169D02*
X0049444Y0059871D01*
X0054168Y0059871D02*
X0054168Y0066169D01*
X0058892Y0066169D02*
X0058892Y0059871D01*
D16*
X0060448Y0148906D03*
X0065448Y0148906D03*
X0065448Y0153906D03*
X0060448Y0153906D03*
X0055448Y0153906D03*
X0055448Y0148906D03*
X0050448Y0148906D03*
X0050448Y0153906D03*
X0045448Y0153906D03*
X0045448Y0148906D03*
X0040448Y0148906D03*
X0040448Y0153906D03*
X0035448Y0153906D03*
X0035448Y0148906D03*
X0030448Y0148906D03*
X0030448Y0153906D03*
X0025448Y0153906D03*
X0020448Y0153906D03*
X0020448Y0148906D03*
X0025448Y0148906D03*
D17*
X0044759Y0022548D03*
X0054759Y0022548D03*
X0064759Y0022548D03*
X0064759Y0012548D03*
X0054759Y0012548D03*
X0044759Y0012548D03*
D18*
X0015388Y0009674D03*
X0031136Y0009674D03*
X0015388Y0033296D03*
X0015388Y0049044D03*
X0032318Y0076997D03*
X0052003Y0076997D03*
X0052003Y0096682D03*
X0032318Y0096682D03*
X0011451Y0118335D03*
X0012633Y0143926D03*
X0012633Y0155737D03*
X0040192Y0128178D03*
X0070507Y0119910D03*
X0079562Y0124241D03*
X0095310Y0139989D03*
X0079562Y0155737D03*
X0114995Y0116367D03*
X0114995Y0096682D03*
X0083499Y0088808D03*
X0083499Y0065186D03*
X0103184Y0049438D03*
X0114995Y0065186D03*
X0146491Y0069123D03*
X0146491Y0092745D03*
X0146491Y0116367D03*
X0146491Y0143926D03*
X0059877Y0049438D03*
X0079562Y0033690D03*
X0098066Y0021485D03*
X0117751Y0009674D03*
X0141373Y0009674D03*
X0149247Y0017548D03*
X0150428Y0037627D03*
X0074444Y0009674D03*
D19*
X0035073Y0119910D03*
X0054759Y0139595D03*
M02*
